<svg id="visual" viewBox="0 0 900 600" width="900" height="600" xmlns="http://www.w3.org/2000/svg" xmlns:xlink="http://www.w3.org/1999/xlink" version="1.1"><g stroke-width="1" stroke-linejoin="bevel"><path d="M426.1 247L350.3 238L389.1 275Z" fill="#205a7a" stroke="#205a7a"></path><path d="M426.1 247L403.1 174L350.3 238Z" fill="#0c2435" stroke="#0c2435"></path><path d="M350.3 238L326.3 292L389.1 275Z" fill="#297ea6" stroke="#297ea6"></path><path d="M514.9 288L473.9 233L426.1 247Z" fill="#19435d" stroke="#19435d"></path><path d="M426.1 247L473.9 233L403.1 174Z" fill="#205a7a" stroke="#205a7a"></path><path d="M403.1 174L345.3 131L350.3 238Z" fill="#277297" stroke="#277297"></path><path d="M350.3 238L249.5 210L326.3 292Z" fill="#15384f" stroke="#15384f"></path><path d="M326.3 292L400.1 363L389.1 275Z" fill="#297ea6" stroke="#297ea6"></path><path d="M389.1 275L400.1 363L426.1 247Z" fill="#112e42" stroke="#112e42"></path><path d="M400.1 363L514.9 288L426.1 247Z" fill="#081a28" stroke="#081a28"></path><path d="M345.3 131L249.5 210L350.3 238Z" fill="#112e42" stroke="#112e42"></path><path d="M249.5 210L260.5 300L326.3 292Z" fill="#00101c" stroke="#00101c"></path><path d="M326.3 292L300.3 371L400.1 363Z" fill="#246688" stroke="#246688"></path><path d="M553.7 128L506.9 143L594.7 230Z" fill="#112e42" stroke="#112e42"></path><path d="M473.9 233L506.9 143L403.1 174Z" fill="#081a28" stroke="#081a28"></path><path d="M403.1 174L402.1 73L345.3 131Z" fill="#246688" stroke="#246688"></path><path d="M260.5 300L300.3 371L326.3 292Z" fill="#19435d" stroke="#19435d"></path><path d="M506.9 143L402.1 73L403.1 174Z" fill="#246688" stroke="#246688"></path><path d="M345.3 131L226.5 165L249.5 210Z" fill="#15384f" stroke="#15384f"></path><path d="M435.1 462L474.9 387L400.1 363Z" fill="#205a7a" stroke="#205a7a"></path><path d="M400.1 363L474.9 387L514.9 288Z" fill="#277297" stroke="#277297"></path><path d="M241.5 63L226.5 165L345.3 131Z" fill="#246688" stroke="#246688"></path><path d="M154.6 250L174.6 306L260.5 300Z" fill="#277297" stroke="#277297"></path><path d="M474.9 387L557.7 297L514.9 288Z" fill="#277297" stroke="#277297"></path><path d="M514.9 288L594.7 230L473.9 233Z" fill="#246688" stroke="#246688"></path><path d="M402.1 73L330.3 52L345.3 131Z" fill="#081a28" stroke="#081a28"></path><path d="M553.7 128L512.9 84L506.9 143Z" fill="#00101c" stroke="#00101c"></path><path d="M506.9 143L512.9 84L402.1 73Z" fill="#0c2435" stroke="#0c2435"></path><path d="M402.1 73L399.1 0L330.3 52Z" fill="#0c2435" stroke="#0c2435"></path><path d="M594.7 230L506.9 143L473.9 233Z" fill="#0c2435" stroke="#0c2435"></path><path d="M300.3 371L337.3 430L400.1 363Z" fill="#0c2435" stroke="#0c2435"></path><path d="M557.7 297L594.7 230L514.9 288Z" fill="#19435d" stroke="#19435d"></path><path d="M260.5 300L249.5 399L300.3 371Z" fill="#081a28" stroke="#081a28"></path><path d="M300.3 371L249.5 399L337.3 430Z" fill="#00101c" stroke="#00101c"></path><path d="M165.6 360L249.5 399L260.5 300Z" fill="#297ea6" stroke="#297ea6"></path><path d="M154.6 250L260.5 300L249.5 210Z" fill="#19435d" stroke="#19435d"></path><path d="M330.3 52L241.5 63L345.3 131Z" fill="#112e42" stroke="#112e42"></path><path d="M226.5 165L154.6 250L249.5 210Z" fill="#00101c" stroke="#00101c"></path><path d="M337.3 430L435.1 462L400.1 363Z" fill="#19435d" stroke="#19435d"></path><path d="M474.9 387L593.7 371L557.7 297Z" fill="#112e42" stroke="#112e42"></path><path d="M159.6 133L154.6 250L226.5 165Z" fill="#0c2435" stroke="#0c2435"></path><path d="M503.9 0L399.1 0L402.1 73Z" fill="#00101c" stroke="#00101c"></path><path d="M330.3 52L301.3 0L241.5 63Z" fill="#19435d" stroke="#19435d"></path><path d="M435.1 462L498.9 446L474.9 387Z" fill="#19435d" stroke="#19435d"></path><path d="M636.5 305L629.5 225L594.7 230Z" fill="#297ea6" stroke="#297ea6"></path><path d="M636.5 305L594.7 230L557.7 297Z" fill="#246688" stroke="#246688"></path><path d="M594.7 230L631.5 139L553.7 128Z" fill="#277297" stroke="#277297"></path><path d="M498.9 446L593.7 371L474.9 387Z" fill="#00101c" stroke="#00101c"></path><path d="M631.5 139L594.7 97L553.7 128Z" fill="#112e42" stroke="#112e42"></path><path d="M553.7 128L594.7 97L512.9 84Z" fill="#081a28" stroke="#081a28"></path><path d="M512.9 84L503.9 0L402.1 73Z" fill="#1d4e6b" stroke="#1d4e6b"></path><path d="M241.5 63L159.6 133L226.5 165Z" fill="#112e42" stroke="#112e42"></path><path d="M399.1 0L301.3 0L330.3 52Z" fill="#246688" stroke="#246688"></path><path d="M241.5 63L174.6 63L159.6 133Z" fill="#00101c" stroke="#00101c"></path><path d="M90.8 317L165.6 360L174.6 306Z" fill="#246688" stroke="#246688"></path><path d="M174.6 306L165.6 360L260.5 300Z" fill="#205a7a" stroke="#205a7a"></path><path d="M593.7 371L636.5 305L557.7 297Z" fill="#081a28" stroke="#081a28"></path><path d="M629.5 225L631.5 139L594.7 230Z" fill="#112e42" stroke="#112e42"></path><path d="M674.5 61L631.5 139L755.4 160Z" fill="#15384f" stroke="#15384f"></path><path d="M555.7 0L503.9 0L512.9 84Z" fill="#297ea6" stroke="#297ea6"></path><path d="M165.6 360L234.5 451L249.5 399Z" fill="#0c2435" stroke="#0c2435"></path><path d="M249.5 399L234.5 451L337.3 430Z" fill="#00101c" stroke="#00101c"></path><path d="M337.3 430L383.1 549L435.1 462Z" fill="#15384f" stroke="#15384f"></path><path d="M231.5 0L174.6 63L241.5 63Z" fill="#112e42" stroke="#112e42"></path><path d="M301.3 0L231.5 0L241.5 63Z" fill="#0c2435" stroke="#0c2435"></path><path d="M594.7 97L555.7 0L512.9 84Z" fill="#277297" stroke="#277297"></path><path d="M653.5 0L555.7 0L594.7 97Z" fill="#19435d" stroke="#19435d"></path><path d="M170.6 503L267.5 512L234.5 451Z" fill="#1d4e6b" stroke="#1d4e6b"></path><path d="M234.5 451L267.5 512L337.3 430Z" fill="#19435d" stroke="#19435d"></path><path d="M503.9 540L594.7 465L498.9 446Z" fill="#0c2435" stroke="#0c2435"></path><path d="M82.8 74L97.8 153L159.6 133Z" fill="#15384f" stroke="#15384f"></path><path d="M159.6 133L97.8 153L154.6 250Z" fill="#112e42" stroke="#112e42"></path><path d="M154.6 250L90.8 317L174.6 306Z" fill="#297ea6" stroke="#297ea6"></path><path d="M267.5 512L300.3 526L337.3 430Z" fill="#205a7a" stroke="#205a7a"></path><path d="M593.7 371L668.5 394L636.5 305Z" fill="#112e42" stroke="#112e42"></path><path d="M498.9 446L594.7 465L593.7 371Z" fill="#00101c" stroke="#00101c"></path><path d="M503.9 540L498.9 446L435.1 462Z" fill="#0c2435" stroke="#0c2435"></path><path d="M77.8 206L90.8 317L154.6 250Z" fill="#0c2435" stroke="#0c2435"></path><path d="M165.6 360L146.6 455L234.5 451Z" fill="#246688" stroke="#246688"></path><path d="M97.8 153L77.8 206L154.6 250Z" fill="#246688" stroke="#246688"></path><path d="M300.3 526L383.1 549L337.3 430Z" fill="#112e42" stroke="#112e42"></path><path d="M594.7 465L668.5 394L593.7 371Z" fill="#15384f" stroke="#15384f"></path><path d="M636.5 305L716.4 312L629.5 225Z" fill="#081a28" stroke="#081a28"></path><path d="M383.1 549L503.9 540L435.1 462Z" fill="#297ea6" stroke="#297ea6"></path><path d="M77.8 426L146.6 455L165.6 360Z" fill="#112e42" stroke="#112e42"></path><path d="M735.4 210L631.5 139L629.5 225Z" fill="#297ea6" stroke="#297ea6"></path><path d="M631.5 139L674.5 61L594.7 97Z" fill="#081a28" stroke="#081a28"></path><path d="M668.5 394L716.4 312L636.5 305Z" fill="#00101c" stroke="#00101c"></path><path d="M231.5 0L147.6 0L174.6 63Z" fill="#277297" stroke="#277297"></path><path d="M174.6 63L82.8 74L159.6 133Z" fill="#081a28" stroke="#081a28"></path><path d="M0 142L0 204L77.8 206Z" fill="#205a7a" stroke="#205a7a"></path><path d="M146.6 455L170.6 503L234.5 451Z" fill="#00101c" stroke="#00101c"></path><path d="M232.5 600L334.3 600L300.3 526Z" fill="#0c2435" stroke="#0c2435"></path><path d="M334.3 600L407.1 600L383.1 549Z" fill="#15384f" stroke="#15384f"></path><path d="M147.6 0L82.8 74L174.6 63Z" fill="#15384f" stroke="#15384f"></path><path d="M716.4 312L735.4 210L629.5 225Z" fill="#19435d" stroke="#19435d"></path><path d="M737.4 0L653.5 0L674.5 61Z" fill="#205a7a" stroke="#205a7a"></path><path d="M674.5 61L653.5 0L594.7 97Z" fill="#081a28" stroke="#081a28"></path><path d="M560.7 600L578.7 539L503.9 540Z" fill="#19435d" stroke="#19435d"></path><path d="M503.9 540L578.7 539L594.7 465Z" fill="#277297" stroke="#277297"></path><path d="M594.7 465L680.5 448L668.5 394Z" fill="#0c2435" stroke="#0c2435"></path><path d="M668.5 394L758.4 397L716.4 312Z" fill="#00101c" stroke="#00101c"></path><path d="M677.5 541L680.5 448L594.7 465Z" fill="#112e42" stroke="#112e42"></path><path d="M0 356L64.8 397L90.8 317Z" fill="#081a28" stroke="#081a28"></path><path d="M90.8 317L64.8 397L165.6 360Z" fill="#0c2435" stroke="#0c2435"></path><path d="M146.6 455L65.8 529L170.6 503Z" fill="#297ea6" stroke="#297ea6"></path><path d="M0 310L90.8 317L77.8 206Z" fill="#1d4e6b" stroke="#1d4e6b"></path><path d="M334.3 600L383.1 549L300.3 526Z" fill="#15384f" stroke="#15384f"></path><path d="M383.1 549L470.9 600L503.9 540Z" fill="#1d4e6b" stroke="#1d4e6b"></path><path d="M64.8 397L77.8 426L165.6 360Z" fill="#15384f" stroke="#15384f"></path><path d="M232.5 600L300.3 526L267.5 512Z" fill="#297ea6" stroke="#297ea6"></path><path d="M407.1 600L470.9 600L383.1 549Z" fill="#297ea6" stroke="#297ea6"></path><path d="M823.2 244L755.4 160L735.4 210Z" fill="#081a28" stroke="#081a28"></path><path d="M735.4 210L755.4 160L631.5 139Z" fill="#277297" stroke="#277297"></path><path d="M147.6 0L86.8 0L82.8 74Z" fill="#246688" stroke="#246688"></path><path d="M0 142L77.8 206L97.8 153Z" fill="#277297" stroke="#277297"></path><path d="M680.5 448L709.4 448L668.5 394Z" fill="#277297" stroke="#277297"></path><path d="M716.4 312L823.2 244L735.4 210Z" fill="#15384f" stroke="#15384f"></path><path d="M721.4 533L709.4 448L680.5 448Z" fill="#15384f" stroke="#15384f"></path><path d="M0 142L97.8 153L82.8 74Z" fill="#246688" stroke="#246688"></path><path d="M0 204L0 310L77.8 206Z" fill="#246688" stroke="#246688"></path><path d="M64.8 397L0 426L77.8 426Z" fill="#112e42" stroke="#112e42"></path><path d="M146.6 600L232.5 600L170.6 503Z" fill="#246688" stroke="#246688"></path><path d="M170.6 503L232.5 600L267.5 512Z" fill="#00101c" stroke="#00101c"></path><path d="M755.4 160L760.4 90L674.5 61Z" fill="#277297" stroke="#277297"></path><path d="M0 87L0 142L82.8 74Z" fill="#246688" stroke="#246688"></path><path d="M470.9 600L560.7 600L503.9 540Z" fill="#0c2435" stroke="#0c2435"></path><path d="M578.7 539L677.5 541L594.7 465Z" fill="#0c2435" stroke="#0c2435"></path><path d="M709.4 448L758.4 397L668.5 394Z" fill="#19435d" stroke="#19435d"></path><path d="M840.2 155L802.2 60L760.4 90Z" fill="#112e42" stroke="#112e42"></path><path d="M0 310L0 356L90.8 317Z" fill="#0c2435" stroke="#0c2435"></path><path d="M77.8 426L65.8 529L146.6 455Z" fill="#1d4e6b" stroke="#1d4e6b"></path><path d="M0 0L0 87L82.8 74Z" fill="#277297" stroke="#277297"></path><path d="M633.5 600L677.5 541L578.7 539Z" fill="#112e42" stroke="#112e42"></path><path d="M709.4 448L833.2 455L758.4 397Z" fill="#246688" stroke="#246688"></path><path d="M760.4 90L737.4 0L674.5 61Z" fill="#277297" stroke="#277297"></path><path d="M833.2 455L794.2 368L758.4 397Z" fill="#277297" stroke="#277297"></path><path d="M758.4 397L794.2 368L716.4 312Z" fill="#277297" stroke="#277297"></path><path d="M0 356L0 426L64.8 397Z" fill="#1d4e6b" stroke="#1d4e6b"></path><path d="M829.2 288L823.2 244L716.4 312Z" fill="#112e42" stroke="#112e42"></path><path d="M760.4 90L802.2 60L737.4 0Z" fill="#081a28" stroke="#081a28"></path><path d="M0 511L65.8 529L77.8 426Z" fill="#00101c" stroke="#00101c"></path><path d="M65.8 529L146.6 600L170.6 503Z" fill="#205a7a" stroke="#205a7a"></path><path d="M560.7 600L633.5 600L578.7 539Z" fill="#246688" stroke="#246688"></path><path d="M794.2 368L829.2 288L716.4 312Z" fill="#00101c" stroke="#00101c"></path><path d="M677.5 541L721.4 533L680.5 448Z" fill="#112e42" stroke="#112e42"></path><path d="M724.4 600L721.4 533L677.5 541Z" fill="#1d4e6b" stroke="#1d4e6b"></path><path d="M840.2 155L755.4 160L823.2 244Z" fill="#15384f" stroke="#15384f"></path><path d="M840.2 155L760.4 90L755.4 160Z" fill="#19435d" stroke="#19435d"></path><path d="M86.8 0L0 0L82.8 74Z" fill="#15384f" stroke="#15384f"></path><path d="M900 237L840.2 155L823.2 244Z" fill="#00101c" stroke="#00101c"></path><path d="M0 426L0 511L77.8 426Z" fill="#112e42" stroke="#112e42"></path><path d="M65.8 529L78.8 600L146.6 600Z" fill="#297ea6" stroke="#297ea6"></path><path d="M0 600L78.8 600L65.8 529Z" fill="#297ea6" stroke="#297ea6"></path><path d="M633.5 600L724.4 600L677.5 541Z" fill="#246688" stroke="#246688"></path><path d="M814.2 531L833.2 455L709.4 448Z" fill="#277297" stroke="#277297"></path><path d="M900 353L900 291L829.2 288Z" fill="#081a28" stroke="#081a28"></path><path d="M814.2 531L709.4 448L721.4 533Z" fill="#246688" stroke="#246688"></path><path d="M829.2 288L900 237L823.2 244Z" fill="#15384f" stroke="#15384f"></path><path d="M900 81L835.2 0L802.2 60Z" fill="#246688" stroke="#246688"></path><path d="M802.2 60L835.2 0L737.4 0Z" fill="#19435d" stroke="#19435d"></path><path d="M900 291L900 237L829.2 288Z" fill="#00101c" stroke="#00101c"></path><path d="M840.2 155L900 81L802.2 60Z" fill="#081a28" stroke="#081a28"></path><path d="M900 353L829.2 288L794.2 368Z" fill="#081a28" stroke="#081a28"></path><path d="M900 237L900 163L840.2 155Z" fill="#297ea6" stroke="#297ea6"></path><path d="M724.4 600L814.2 531L721.4 533Z" fill="#112e42" stroke="#112e42"></path><path d="M833.2 455L900 353L794.2 368Z" fill="#0c2435" stroke="#0c2435"></path><path d="M900 475L900 353L833.2 455Z" fill="#277297" stroke="#277297"></path><path d="M0 511L0 600L65.8 529Z" fill="#081a28" stroke="#081a28"></path><path d="M900 163L900 81L840.2 155Z" fill="#0c2435" stroke="#0c2435"></path><path d="M900 81L900 0L835.2 0Z" fill="#1d4e6b" stroke="#1d4e6b"></path><path d="M900 507L833.2 455L814.2 531Z" fill="#00101c" stroke="#00101c"></path><path d="M900 507L900 475L833.2 455Z" fill="#15384f" stroke="#15384f"></path><path d="M724.4 600L828.2 600L814.2 531Z" fill="#297ea6" stroke="#297ea6"></path><path d="M900 600L900 507L814.2 531Z" fill="#246688" stroke="#246688"></path><path d="M828.2 600L900 600L814.2 531Z" fill="#081a28" stroke="#081a28"></path></g></svg>